<?xml version="1.0" encoding="utf-8"?>
<!-- Generator: Adobe Illustrator 24.0.1, SVG Export Plug-In . SVG Version: 6.00 Build 0)  -->
<svg version="1.1" id="Layer_1" xmlns="http://www.w3.org/2000/svg" xmlns:xlink="http://www.w3.org/1999/xlink" x="0px" y="0px"
	 viewBox="0 0 600 600" style="enable-background:new 0 0 600 600;" xml:space="preserve">
<style type="text/css">
	.st0{fill:#FFFFFF;}
</style>
<g>
	<rect x="0.5" y="0.5" width="599" height="599"/>
	<path d="M599,1v598H1V1H599 M600,0H0v600h600V0L600,0z"/>
</g>
<g>
	<path class="st0" d="M274.7,389.4v29.1h-57.3v-20.4c-15.9,15.4-33.6,23.1-53.1,23.1c-15.2,0-28.4-4.9-39.6-14.8
		c-11.2-9.9-16.8-22.5-16.8-37.9c0-15.5,6-28.4,17.9-38.6c11.9-10.2,26.2-15.3,43-15.3c15.6,0,30.8,4.7,45.4,14.1v-16.6
		c0-8.5-0.8-15.1-2.4-19.7c-1.6-4.6-5.4-8.7-11.3-12.4c-5.9-3.7-13.7-5.5-23.2-5.5c-16.4,0-28.3,6.6-35.7,19.7l-31.4-8.3
		c13.9-26,37.9-39,72.1-39c12.5,0,23.4,1.7,32.5,5.1c9.1,3.4,16,7.8,20.4,13.1c4.5,5.3,7.5,11.1,9.1,17.3s2.3,16.1,2.3,29.7v77.3
		H274.7z M214.2,356.5c-14.1-11-28.5-16.6-42.9-16.6c-9.1,0-16.7,2.6-22.8,7.9c-6.1,5.3-9.1,12.1-9.1,20.5c0,7.8,2.7,14.4,8,19.7
		c5.3,5.3,12.6,7.9,21.8,7.9c15.9,0,30.9-6.7,45-20V356.5z"/>
	<path class="st0" d="M288.5,418.6v-29.1h29.7V207.8h-29.7v-29.1h61.7v96.6c16.4-18.9,36.6-28.3,60.5-28.3c23,0,42.3,7.9,57.9,23.7
		c15.6,15.8,23.4,36.6,23.4,62.5c0,24.8-7.6,45.7-22.9,62.7c-15.2,17-34.8,25.4-58.6,25.4c-13.3,0-25.5-2.9-36.6-8.6
		c-11-5.7-19-12.1-23.8-19.1v25H288.5z M351.3,335.4c0,17.4,5.3,31.1,16,41.3c10.6,10.2,22.9,15.3,36.8,15.3
		c14.6,0,27.2-5.4,37.8-16.2c10.6-10.8,15.9-25.3,15.9-43.5c0-17.6-5.3-31.2-15.8-41c-10.5-9.7-22.9-14.6-37-14.6
		c-13.9,0-26.3,5-37.3,15.1C356.8,302,351.3,316.5,351.3,335.4z"/>
</g>
</svg>
